<mxGraphModel dx="0" dy="0" grid="1" gridSize="10" guides="1" tooltips="1" connect="1" arrows="1" fold="1" page="0" pageScale="1" background="none" math="0" shadow="0">
  <root>
    <mxCell id="0" />
    <mxCell id="1" parent="0" />
    <mxCell id="node0" parent="1" vertex="1" value="&lt;p style=&quot;margin:0px;margin-top:4px;text-align:center;&quot;&gt;&lt;b&gt;HotPlace&lt;/b&gt;&lt;/p&gt;&lt;hr size=&quot;1&quot;/&gt;&lt;p style=&quot;margin:0 0 0 4px;line-height:1.6;&quot;&gt;- userId: Long&lt;br/&gt;- longitude: Double&lt;br/&gt;- id: Long&lt;br/&gt;- summary: String&lt;br/&gt;- contentType: ContentType&lt;br/&gt;- latitude: Double&lt;br/&gt;- image: byte[]&lt;br/&gt;- userName: String&lt;br/&gt;- address: String&lt;br/&gt;- title: String&lt;/p&gt;&lt;hr size=&quot;1&quot;/&gt;&lt;p style=&quot;margin:0 0 0 4px;line-height:1.6;&quot;&gt;+ getUserId(): Long&lt;br/&gt;+ getId(): Long&lt;br/&gt;+ getUserName(): String&lt;br/&gt;+ getTitle(): String&lt;br/&gt;+ builder(): HotPlaceBuilder&lt;br/&gt;+ getContentType(): ContentType&lt;br/&gt;+ getAddress(): String&lt;br/&gt;+ getSummary(): String&lt;br/&gt;+ getLongitude(): Double&lt;br/&gt;+ getLatitude(): Double&lt;br/&gt;+ getImage(): byte[]&lt;/p&gt;" style="verticalAlign=top;align=left;overflow=fill;fontSize=14;fontFamily=Helvetica;html=1;rounded=0;shadow=0;comic=0;labelBackgroundColor=none;strokeWidth=1;">
      <mxGeometry x="-129" y="1248" width="247" height="523" as="geometry" />
    </mxCell>
    <mxCell id="node6" parent="1" vertex="1" value="&lt;p style=&quot;margin:0px;margin-top:4px;text-align:center;&quot;&gt;&lt;b&gt;HotPlaceController&lt;/b&gt;&lt;/p&gt;&lt;hr size=&quot;1&quot;/&gt;&lt;p style=&quot;margin:0 0 0 4px;line-height:1.6;&quot;&gt;- hotPlaceService: HotPlaceService&lt;br/&gt;- log: Logger&lt;/p&gt;&lt;hr size=&quot;1&quot;/&gt;&lt;p style=&quot;margin:0 0 0 4px;line-height:1.6;&quot;&gt;+ getHotPlace(Long): ResponseEntity&amp;lt;HotPlaceDto&amp;gt;&lt;br/&gt;+ getPage(PageRequestDto): ResponseEntity&amp;lt;PageResponseDto&amp;gt;&lt;br/&gt;+ createHotPlace(Long, HotPlaceCreateRequestDto): ResponseEntity&amp;lt;Void&amp;gt;&lt;/p&gt;" style="verticalAlign=top;align=left;overflow=fill;fontSize=14;fontFamily=Helvetica;html=1;rounded=0;shadow=0;comic=0;labelBackgroundColor=none;strokeWidth=1;">
      <mxGeometry x="-122" y="472" width="512" height="155" as="geometry" />
    </mxCell>
    <mxCell id="node2" parent="1" vertex="1" value="&lt;p style=&quot;margin:0px;margin-top:4px;text-align:center;&quot;&gt;&lt;i&gt;&amp;lt;&amp;lt;record&amp;gt;&amp;gt;&lt;/i&gt;&lt;br/&gt;&lt;b&gt;HotPlaceCreateDto&lt;/b&gt;&lt;/p&gt;&lt;hr size=&quot;1&quot;/&gt;&lt;p style=&quot;margin:0 0 0 4px;line-height:1.6;&quot;&gt;- summary: String&lt;br/&gt;- longitude: Double&lt;br/&gt;- latitude: Double&lt;br/&gt;- address: String&lt;br/&gt;- image: byte[]&lt;br/&gt;- userId: Long&lt;br/&gt;- title: String&lt;br/&gt;- contentTypeId: Integer&lt;/p&gt;&lt;hr size=&quot;1&quot;/&gt;&lt;p style=&quot;margin:0 0 0 4px;line-height:1.6;&quot;&gt;+ address(): String&lt;br/&gt;+ builder(): HotPlaceCreateDtoBuilder&lt;br/&gt;+ summary(): String&lt;br/&gt;+ contentTypeId(): Integer&lt;br/&gt;+ latitude(): Double&lt;br/&gt;+ title(): String&lt;br/&gt;+ longitude(): Double&lt;br/&gt;+ userId(): Long&lt;br/&gt;+ image(): byte[]&lt;/p&gt;" style="verticalAlign=top;align=left;overflow=fill;fontSize=14;fontFamily=Helvetica;html=1;rounded=0;shadow=0;comic=0;labelBackgroundColor=none;strokeWidth=1;">
      <mxGeometry x="540" y="794" width="268" height="431" as="geometry" />
    </mxCell>
    <mxCell id="node1" parent="1" vertex="1" value="&lt;p style=&quot;margin:0px;margin-top:4px;text-align:center;&quot;&gt;&lt;i&gt;&amp;lt;&amp;lt;record&amp;gt;&amp;gt;&lt;/i&gt;&lt;br/&gt;&lt;b&gt;HotPlaceCreateRequestDto&lt;/b&gt;&lt;/p&gt;&lt;hr size=&quot;1&quot;/&gt;&lt;p style=&quot;margin:0 0 0 4px;line-height:1.6;&quot;&gt;- longitude: Double&lt;br/&gt;- title: String&lt;br/&gt;- contentTypeId: Integer&lt;br/&gt;- image: byte[]&lt;br/&gt;- latitude: Double&lt;br/&gt;- summary: String&lt;br/&gt;- address: String&lt;/p&gt;&lt;hr size=&quot;1&quot;/&gt;&lt;p style=&quot;margin:0 0 0 4px;line-height:1.6;&quot;&gt;+ title(): String&lt;br/&gt;+ builder(): HotPlaceCreateRequestDtoBuilder&lt;br/&gt;+ summary(): String&lt;br/&gt;+ longitude(): Double&lt;br/&gt;+ image(): byte[]&lt;br/&gt;+ address(): String&lt;br/&gt;+ contentTypeId(): Integer&lt;br/&gt;+ latitude(): Double&lt;/p&gt;" style="verticalAlign=top;align=left;overflow=fill;fontSize=14;fontFamily=Helvetica;html=1;rounded=0;shadow=0;comic=0;labelBackgroundColor=none;strokeWidth=1;">
      <mxGeometry x="594" y="357" width="320" height="385" as="geometry" />
    </mxCell>
    <mxCell id="node3" parent="1" vertex="1" value="&lt;p style=&quot;margin:0px;margin-top:4px;text-align:center;&quot;&gt;&lt;i&gt;&amp;lt;&amp;lt;record&amp;gt;&amp;gt;&lt;/i&gt;&lt;br/&gt;&lt;b&gt;HotPlaceDto&lt;/b&gt;&lt;/p&gt;&lt;hr size=&quot;1&quot;/&gt;&lt;p style=&quot;margin:0 0 0 4px;line-height:1.6;&quot;&gt;- title: String&lt;br/&gt;- contentTypeName: String&lt;br/&gt;- address: String&lt;br/&gt;- userId: Long&lt;br/&gt;- contentTypeId: Integer&lt;br/&gt;- latitude: Double&lt;br/&gt;- summary: String&lt;br/&gt;- image: byte[]&lt;br/&gt;- longitude: Double&lt;br/&gt;- userName: String&lt;/p&gt;&lt;hr size=&quot;1&quot;/&gt;&lt;p style=&quot;margin:0 0 0 4px;line-height:1.6;&quot;&gt;+ contentTypeId(): Integer&lt;br/&gt;+ builder(): HotPlaceDtoBuilder&lt;br/&gt;+ title(): String&lt;br/&gt;+ userName(): String&lt;br/&gt;+ userId(): Long&lt;br/&gt;+ image(): byte[]&lt;br/&gt;+ longitude(): Double&lt;br/&gt;+ latitude(): Double&lt;br/&gt;+ contentTypeName(): String&lt;br/&gt;+ address(): String&lt;br/&gt;+ summary(): String&lt;/p&gt;" style="verticalAlign=top;align=left;overflow=fill;fontSize=14;fontFamily=Helvetica;html=1;rounded=0;shadow=0;comic=0;labelBackgroundColor=none;strokeWidth=1;">
      <mxGeometry x="281" y="1248" width="226" height="523" as="geometry" />
    </mxCell>
    <mxCell id="node5" parent="1" vertex="1" value="&lt;p style=&quot;margin:0px;margin-top:4px;text-align:center;&quot;&gt;&lt;i&gt;&amp;lt;&amp;lt;interface&amp;gt;&amp;gt;&lt;/i&gt;&lt;br/&gt;&lt;b&gt;HotPlaceRepository&lt;/b&gt;&lt;/p&gt;&lt;hr size=&quot;1&quot;/&gt;&lt;p style=&quot;margin:0 0 0 4px;line-height:1.6;&quot;&gt;+ findAll(Pageable): Page&amp;lt;HotPlace&amp;gt;&lt;br/&gt;+ findById(Long): Optional&amp;lt;HotPlace&amp;gt;&lt;/p&gt;" style="verticalAlign=top;align=left;overflow=fill;fontSize=14;fontFamily=Helvetica;html=1;rounded=0;shadow=0;comic=0;labelBackgroundColor=none;strokeWidth=1;">
      <mxGeometry x="-120" y="-13" width="269" height="106" as="geometry" />
    </mxCell>
    <mxCell id="node4" parent="1" vertex="1" value="&lt;p style=&quot;margin:0px;margin-top:4px;text-align:center;&quot;&gt;&lt;i&gt;&amp;lt;&amp;lt;record&amp;gt;&amp;gt;&lt;/i&gt;&lt;br/&gt;&lt;b&gt;HotPlaceSearchDto&lt;/b&gt;&lt;/p&gt;&lt;hr size=&quot;1&quot;/&gt;&lt;p style=&quot;margin:0 0 0 4px;line-height:1.6;&quot;&gt;- size: Integer&lt;br/&gt;- page: Integer&lt;br/&gt;- keyword: String&lt;/p&gt;&lt;hr size=&quot;1&quot;/&gt;&lt;p style=&quot;margin:0 0 0 4px;line-height:1.6;&quot;&gt;+ page(): Integer&lt;br/&gt;+ size(): Integer&lt;br/&gt;+ builder(): HotPlaceSearchDtoBuilder&lt;br/&gt;+ keyword(): String&lt;/p&gt;" style="verticalAlign=top;align=left;overflow=fill;fontSize=14;fontFamily=Helvetica;html=1;rounded=0;shadow=0;comic=0;labelBackgroundColor=none;strokeWidth=1;">
      <mxGeometry x="280" y="129" width="269" height="201" as="geometry" />
    </mxCell>
    <mxCell id="node7" parent="1" vertex="1" value="&lt;p style=&quot;margin:0px;margin-top:4px;text-align:center;&quot;&gt;&lt;b&gt;HotPlaceService&lt;/b&gt;&lt;/p&gt;&lt;hr size=&quot;1&quot;/&gt;&lt;p style=&quot;margin:0 0 0 4px;line-height:1.6;&quot;&gt;- log: Logger&lt;br/&gt;- contentTypeRepository: ContentTypeRepository&lt;br/&gt;- hotplaceRepository: HotPlaceRepository&lt;br/&gt;- userRepository: UserRepository&lt;/p&gt;&lt;hr size=&quot;1&quot;/&gt;&lt;p style=&quot;margin:0 0 0 4px;line-height:1.6;&quot;&gt;+ createHotPlace(HotPlaceCreateDto): void&lt;br/&gt;+ search(HotPlaceSearchDto): Page&amp;lt;HotPlaceDto&amp;gt;&lt;br/&gt;+ getHotPlace(Long): HotPlaceDto&lt;br/&gt;- toDto(HotPlace): HotPlaceDto&lt;/p&gt;" style="verticalAlign=top;align=left;overflow=fill;fontSize=14;fontFamily=Helvetica;html=1;rounded=0;shadow=0;comic=0;labelBackgroundColor=none;strokeWidth=1;">
      <mxGeometry x="18" y="897" width="352" height="224" as="geometry" />
    </mxCell>
  </root>
</mxGraphModel>